<?xml version="1.0" encoding="UTF-8" standalone="no"?>
<!-- Created with Inkscape (http://www.inkscape.org/) -->

<svg
   version="1.1"
   id="svg815"
   xml:space="preserve"
   width="289.4129"
   height="337.76346"
   viewBox="0 0 289.41289 337.76346"
   sodipodi:docname="logo.svg"
   inkscape:export-filename="C:\Users\eugec\bitmap.png"
   inkscape:export-xdpi="873.66089"
   inkscape:export-ydpi="873.66089"
   inkscape:version="1.1.2 (b8e25be833, 2022-02-05)"
   xmlns:inkscape="http://www.inkscape.org/namespaces/inkscape"
   xmlns:sodipodi="http://sodipodi.sourceforge.net/DTD/sodipodi-0.dtd"
   xmlns="http://www.w3.org/2000/svg"
   xmlns:svg="http://www.w3.org/2000/svg"
   xmlns:rdf="http://www.w3.org/1999/02/22-rdf-syntax-ns#"
   xmlns:cc="http://creativecommons.org/ns#"
   xmlns:dc="http://purl.org/dc/elements/1.1/"><metadata
     id="metadata821"><rdf:RDF><cc:Work
         rdf:about=""><dc:format>image/svg+xml</dc:format><dc:type
           rdf:resource="http://purl.org/dc/dcmitype/StillImage" /></cc:Work></rdf:RDF></metadata><defs
     id="defs819"><clipPath
       clipPathUnits="userSpaceOnUse"
       id="clipPath831"><path
         d="M 0,574.303 H 792.7 V 0 H 0 Z"
         id="path829"
         inkscape:connector-curvature="0" /></clipPath></defs><sodipodi:namedview
     pagecolor="#ffffff"
     bordercolor="#666666"
     borderopacity="1"
     objecttolerance="10"
     gridtolerance="10"
     guidetolerance="10"
     inkscape:pageopacity="0"
     inkscape:pageshadow="2"
     inkscape:window-width="1920"
     inkscape:window-height="1017"
     id="namedview817"
     showgrid="false"
     inkscape:zoom="1.1074294"
     inkscape:cx="147.18771"
     inkscape:cy="215.81511"
     inkscape:window-x="-8"
     inkscape:window-y="-8"
     inkscape:window-maximized="1"
     inkscape:current-layer="g823"
     inkscape:pagecheckerboard="false" /><g
     inkscape:groupmode="layer"
     id="layer2"
     inkscape:label="sfondo capra"
     transform="translate(-392.6324,-233.44041)"><rect
       style="opacity:1;fill:#ffffff;fill-opacity:1;stroke:#ffffff;stroke-width:1.75748;stroke-miterlimit:4;stroke-dasharray:none;stroke-opacity:1"
       id="rect955"
       width="83.325851"
       height="158.98949"
       x="495.16592"
       y="377.20285"
       ry="1.9155354"
       rx="0" /><rect
       style="opacity:1;fill:#ff0000;fill-opacity:1;stroke:#ff0000;stroke-width:1.75748;stroke-miterlimit:4;stroke-dasharray:none;stroke-opacity:1"
       id="rect957"
       width="11.173957"
       height="0.63851184"
       x="575.61841"
       y="400.18927"
       ry="0.31925592" /><rect
       style="opacity:1;fill:#ffffff;fill-opacity:1;stroke:#ffffff;stroke-width:1.75748;stroke-miterlimit:4;stroke-dasharray:none;stroke-opacity:1"
       id="rect966"
       width="11.812497"
       height="59.700871"
       x="579.76874"
       y="430.83786"
       ry="1.91554" /><rect
       style="opacity:1;fill:#ffffff;fill-opacity:1;stroke:#ffffff;stroke-width:1.75748;stroke-miterlimit:4;stroke-dasharray:none;stroke-opacity:1"
       id="rect968"
       width="21.709402"
       height="62.574158"
       x="474.09503"
       y="409.76697"
       ry="1.91554" /></g><g
     id="g823"
     inkscape:groupmode="layer"
     inkscape:label="AF_tamburimedioevali"
     transform="matrix(1.3333333,0,0,-1.3333333,-392.6324,532.29692)"><g
   id="g825"><g
     id="g827"
     clip-path="url(#clipPath831)"><g
       id="g833"
       transform="translate(416.8354,290.4922)"><path
         d="m 0,0 c 1.133,0.186 3.457,-0.334 5.819,-1.227 2.357,-0.892 5.335,-1.285 7.397,-0.445 2.041,0.828 2.679,0.955 2.679,0.955 0,0 -1.192,-1.916 -2.392,-2.66 -0.87,-0.545 -2.253,-1.293 -3.556,-1.119 0,0 -2.467,0.225 -5.31,0.478 -3.203,0.288 -4.142,-0.384 -5.611,-1.789 0,0 0.655,0.612 2.234,0.895 3.115,0.57 7.803,-0.719 8.498,-0.795 1.721,-0.193 3.443,0.318 6.391,2.059 0.788,0.46 1.339,0.509 1.339,0.509 0,0 -2.582,-4.834 -6.773,-5.039 -2.681,-0.136 -5.694,0.33 -9.76,-1.629 0,0 4.575,-5.42 -0.878,-14.127 -5.452,-8.703 -4.713,-12 -4.956,-14.681 -0.192,-2.106 2.117,-6.735 5.071,-8.705 2.294,-1.528 7.915,-6.619 10.044,-9.758 1.832,-2.701 3.515,-5.684 4.145,-6.412 0.351,-0.17 0.558,0.213 0.558,0.213 0.097,0.234 0.57,1.474 0.207,2.006 -0.794,1.175 -0.869,2.857 -0.354,4.224 1.041,2.781 1.107,5.967 0.633,6.07 -0.349,0.079 0.892,-0.041 2.079,-1.867 0,0 0.111,6.104 1.958,7.305 1.845,1.203 3.296,1.842 3.296,1.842 0,0 -2.055,-1.778 -0.598,-5.25 1.354,-3.239 1.359,-3.36 1.359,-3.36 l -0.005,0.121 c 0.553,0.346 1.228,0.61 2.13,0.768 0,0 -1.724,-4.271 -0.89,-5.531 0,0 1.556,-5.096 -0.738,-7.162 -0.954,-0.862 -0.063,-0.774 0.254,-0.643 1.004,0.428 1.563,1.438 1.563,1.438 0,0 0.521,-3.239 -1.703,-4.241 -2.223,-1 -5.363,-0.074 -5.396,-0.074 0,0 -0.766,-0.316 -0.51,-1.305 0,0 0.198,-0.982 0.622,-1.628 1.433,-2.198 1.624,-4.975 0.668,-8.231 -1.247,-4.236 -1.688,-5.258 -3.731,-7.553 0,0 -1.881,-3.095 -3.666,-6.029 -1.787,-2.934 -1.551,-4.592 -1.912,-5.738 -0.383,-1.209 -2.233,-2.742 -3.127,-3.252 l -3.123,-3.125 c -3.444,-3.826 -4.592,-4.529 -5.485,-5.742 -0.893,-1.211 -0.987,-0.766 -1.53,-2.932 -0.8,-3.172 -1.199,-3.891 -6.287,-4.209 -2.783,-0.182 -2.576,0.594 -2.576,0.594 l 0.528,0.5 c -0.347,-0.291 -1.858,-0.112 -2.053,0.371 0,0 1.063,1.055 2.001,2.746 1.753,3.152 1.912,3.824 3.348,4.396 0.934,0.377 1.673,0.737 2.823,1.247 1.146,0.509 7.861,7.251 8.608,8.894 0.718,1.578 1.432,2.162 1.483,3.639 0.096,2.738 -2.92,5.252 -3.859,6.82 -0.415,0.695 -0.79,1.361 -1.14,2.004 -0.572,0.105 -1.774,0.383 -1.774,0.383 -5.572,1.4 -9.969,4.129 -9.553,1.918 0.257,-1.366 0.51,-3.889 0.51,-3.889 0.129,-0.893 0.286,-1.959 0.412,-3.348 0.043,-0.435 0.693,-2.933 -0.126,-3.877 -1.242,-1.435 -0.561,-1.3 -2.506,-1.609 -4.603,-0.732 -3.154,-0.648 -5.118,-0.73 -1.605,-0.067 -3.903,-0.522 -4.937,-0.959 -1.001,-0.424 -1.123,-2.955 -1.595,-3.573 -0.752,-0.98 -1.942,-0.865 -3.253,-0.955 -1.312,-0.088 -3.205,-0.222 -3.658,0.377 -0.106,0.139 0.602,1.031 0.602,1.031 0,0 -1.439,-0.767 -1.439,-0.205 0,0.088 0.119,0.348 0.262,0.643 1.116,2.297 1.467,2.836 2.677,4.91 0,0 0.833,1.178 1.722,1.44 1.291,0.363 2.009,0.57 4.432,0.505 1.095,-0.025 3.661,0.42 3.661,0.42 2.549,0.319 3.878,0.383 4.368,0.795 0.416,0.35 0.658,1.209 -0.655,5.756 0,0 -0.319,1.818 -0.619,4.098 -0.113,0.844 -0.415,1.611 -0.542,2.199 -0.606,2.809 0.103,3.449 1.402,4.336 0.525,0.359 3.748,0.879 4.558,0.91 0.369,0.014 1.692,0.455 3.529,0.85 -1.457,0.707 -2.883,1.3 -4.23,2.068 -14.958,8.549 -14.923,17.537 -16.581,19.77 -1.534,2.066 -3.857,3.347 -3.857,3.347 -1.595,1.276 -4.915,3.364 -6.982,3.352 -2.109,-0.02 -6.967,-7.32 -7.448,-9.57 -0.262,-1.229 1.37,-2.217 2.328,-2.502 0.955,-0.286 2.868,-1.723 1.147,-6.024 -1.721,-4.308 -2.664,-4.5 -3.055,-4.308 -0.389,0.191 -0.67,0.384 -0.67,0.384 0,0 -0.383,-1.244 -1.146,-1.244 -0.523,0 -0.287,1.725 -0.676,3.731 -0.404,2.078 -0.908,2.964 -1.388,3.73 -0.544,0.869 0.048,1.834 -0.528,2.818 -0.582,1.008 -1.444,2.364 -0.86,4.979 0.543,2.424 3.014,5.693 4.065,6.937 1.054,1.245 2.274,2.79 3.492,4.141 0.861,0.959 2.176,2.705 3.444,3.158 0.669,0.241 0.679,1.399 3.684,0.272 1.436,-0.537 2.874,-1.508 4.16,-1.897 1.962,-0.592 3.156,-0.769 3.156,-0.769 0,0 -1.912,1.248 -3.059,1.916 -0.654,0.383 -2.158,1.344 -2.925,2.011 -0.765,0.672 -1.876,2.518 -2.774,3.637 -0.957,1.197 -2.453,5.66 -3,5.799 -1.032,0.264 -2.302,-1.914 -5.172,-3.35 -2.869,-1.431 -5.065,-2.582 -5.159,-3.441 -0.097,-0.863 0.85,-4.021 -0.486,-5.645 -1.81,-2.201 -2.227,-2.582 -4.011,-3.921 -1.913,-1.432 -3.538,-0.862 -3.538,-0.862 l 0.574,1.342 c 0,0 -2.295,-1.152 -1.73,0.092 1.174,2.576 2.391,7.56 3.062,9.09 0.669,1.529 1.305,0.431 2.008,3.158 0.628,2.439 1.452,1.717 3.355,3.06 2.104,1.485 4.905,2.686 5.964,3.444 1.027,0.73 2.646,2.199 3.601,3.06 0.957,0.86 2.77,0.684 3.821,0.098 1.204,-0.674 1.941,-3.166 3.115,-4.975 1.148,-1.771 4.538,-5.074 6.451,-6.027 0,0 0.672,-0.353 0.638,-0.289 -0.03,0.063 0.51,1.629 0.51,1.629 1.945,3.281 2.856,3.752 4.176,4.527 1.851,1.082 5.398,2.647 6.45,3.315 1.05,0.67 1.427,1.914 0.853,4.213 l -0.392,1.056 c -1.154,0.168 -2.237,0.369 -3.337,0.602 -3.062,0.637 -4.587,-0.035 -4.587,-0.035 l -0.048,0.08 c 0.29,-0.789 0.386,-1.865 -0.468,-2.983 -1.658,-2.17 -3.595,-3.129 -3.897,-3.752 -0.305,-0.621 -0.384,-1.099 -0.416,-1.193 -0.038,-0.09 -0.668,0.938 -0.668,0.938 0,0 -0.481,-0.696 -0.195,-2.081 0.031,-0.142 -1.676,0.27 -2.438,1.674 -0.766,1.403 -0.55,3.782 0.598,5.053 1.148,1.273 1.659,2.936 0.638,3.063 -1.02,0.125 -3.954,-0.254 -1.658,3.316 0,0 -1.179,0.922 0,2.101 0,0 1.626,0.45 1.626,1.629 0,1.18 1.053,1.436 3.604,1.69 2.552,0.252 8.801,2.869 9.5,2.996 0.704,0.129 3.459,1.816 4.912,2.297 1.441,0.476 6.042,0.303 7.047,0.783 1.78,0.846 5.788,3.01 7.224,3.25 m -99.735,-45.268 c 22.362,-50.507 66.117,-88.378 85.178,-99.296 19.189,10.851 63.338,48.626 85.938,99.191 l -85.473,88.385 z"
         style="fill:#1d1d1b;fill-opacity:1;fill-rule:nonzero;stroke:none"
         id="path835"
         inkscape:connector-curvature="0" /></g><g
       id="g837"
       transform="translate(511.4771,398.5547)"><path
         d="m 0,0 -109.463,0.219 2.027,0.006 -109.462,0.443 c 0,0 -2.567,-84.602 17.709,-141.934 l 84.826,82.036 -15.685,16.218 c -4.814,0.42 -11.969,3.635 -14.635,6.301 -3.653,3.652 -3.653,9.58 0,13.234 3.655,3.653 9.582,3.655 13.237,0 2.647,-2.65 5.944,-9.634 6.376,-14.468 l 16.332,-15.844 16.721,16.17 c 0.42,4.814 3.635,11.967 6.301,14.635 3.654,3.654 9.58,3.654 13.233,0 3.653,-3.655 3.657,-9.582 0.002,-13.237 -2.653,-2.648 -9.636,-5.947 -14.467,-6.375 l -16.159,-16.656 84.689,-82.162 C 2.047,-84.211 0,0 0,0"
         style="fill:#1d1d1b;fill-opacity:1;fill-rule:nonzero;stroke:none"
         id="path839"
         inkscape:connector-curvature="0" /></g><g
       id="g841"
       transform="translate(402.3052,145.9121)"><path
         d="M 0,0 C -0.009,0.006 -0.018,0.012 -0.026,0.016 -0.042,0.008 -0.058,-0.002 -0.073,-0.012 Z"
         style="fill:#1d1d1b;fill-opacity:1;fill-rule:nonzero;stroke:none"
         id="path843"
         inkscape:connector-curvature="0" /></g><g
       id="g845"
       transform="translate(386.4067,360.6094)"><path
         d="m 0,0 c -0.432,4.834 -3.729,11.818 -6.376,14.469 -3.654,3.654 -9.582,3.652 -13.236,0 -3.654,-3.655 -3.654,-9.582 0,-13.235 2.666,-2.666 9.82,-5.88 14.634,-6.3 l 15.685,-16.219 5.626,5.441 z"
         style="fill:#ffffff;fill-opacity:1;fill-rule:nonzero;stroke:none"
         id="path847"
         inkscape:connector-curvature="0" /></g><g
       id="g849"
       transform="translate(402.7437,333.5039)"><path
         d="m 0,0 85.473,-88.385 c 0.458,1.026 0.923,2.045 1.362,3.08 1.228,2.891 2.385,5.879 3.48,8.942 L 5.626,5.799 Z"
         style="fill:#ffffff;fill-opacity:1;fill-rule:nonzero;stroke:none"
         id="path851"
         inkscape:connector-curvature="0" /></g><g
       id="g853"
       transform="translate(424.5288,355.959)"><path
         d="m 0,0 c 4.831,0.428 11.814,3.727 14.467,6.375 3.655,3.654 3.651,9.582 -0.002,13.236 -3.652,3.655 -9.578,3.655 -13.233,0 -2.666,-2.668 -5.88,-9.82 -6.3,-14.634 l -16.722,-16.17 5.631,-5.463 z"
         style="fill:#ffffff;fill-opacity:1;fill-rule:nonzero;stroke:none"
         id="path855"
         inkscape:connector-curvature="0" /></g><g
       id="g857"
       transform="translate(397.1138,339.3242)"><path
         d="m 0,0 -84.826,-82.035 c 1.034,-2.926 2.127,-5.783 3.284,-8.553 0.494,-1.18 1.012,-2.346 1.528,-3.512 L 5.63,-5.82 Z"
         style="fill:#ffffff;fill-opacity:1;fill-rule:nonzero;stroke:none"
         id="path859"
         inkscape:connector-curvature="0" /></g><g
       id="g861"
       transform="translate(408.3696,339.3027)"><path
         d="m 0,0 -5.63,5.463 -5.626,-5.442 5.63,-5.82 z"
         style="fill:#ffffff;fill-opacity:1;fill-rule:nonzero;stroke:none"
         id="path863"
         inkscape:connector-curvature="0" /></g></g></g>



</g></svg>
